<svg width="13" height="13" viewBox="0 0 13 13" fill="none" xmlns="http://www.w3.org/2000/svg">
<path fill-rule="evenodd" clip-rule="evenodd" d="M10.7497 3.03027C10.7497 3.46105 10.4005 3.81027 9.96974 3.81027C9.53896 3.81027 9.18969 3.46105 9.18969 3.03027C9.18969 2.59949 9.53896 2.25027 9.96974 2.25027C10.4005 2.25027 10.7497 2.59949 10.7497 3.03027M6.49999 8.66668C5.30338 8.66668 4.33331 7.69661 4.33331 6.5C4.33331 5.30339 5.30338 4.33331 6.49999 4.33331C7.6966 4.33331 8.66668 5.30339 8.66668 6.5C8.66668 7.69661 7.6966 8.66668 6.49999 8.66668M6.50001 3.16215C4.6566 3.16215 3.16216 4.65654 3.16216 6.5C3.16216 8.34341 4.6566 9.83785 6.50001 9.83785C8.34342 9.83785 9.83786 8.34341 9.83786 6.5C9.83786 4.65654 8.34342 3.16215 6.50001 3.16215M6.5 0C4.73469 0 4.51339 0.00746484 3.82007 0.0391016C3.12823 0.0706875 2.65571 0.180527 2.24225 0.34125C1.81482 0.507355 1.45234 0.729625 1.09098 1.09098C0.729625 1.45229 0.507355 1.81477 0.34125 2.24225C0.180578 2.65571 0.0706875 3.12818 0.0391016 3.82007C0.00746484 4.51334 0 4.73469 0 6.5C0 8.26531 0.00746484 8.48666 0.0391016 9.17993C0.0706875 9.87177 0.180578 10.3443 0.34125 10.7578C0.507355 11.1851 0.729625 11.5477 1.09098 11.909C1.45234 12.2704 1.81482 12.4926 2.24225 12.6587C2.65571 12.8195 3.12823 12.9293 3.82007 12.9609C4.51339 12.9925 4.73469 13 6.5 13C8.26531 13 8.48671 12.9925 9.17993 12.9609C9.87182 12.9293 10.3443 12.8195 10.7578 12.6587C11.1852 12.4926 11.5477 12.2704 11.9091 11.909C12.2704 11.5477 12.4926 11.1852 12.6588 10.7578C12.8195 10.3443 12.9293 9.87177 12.9609 9.17993C12.9925 8.48666 13 8.26531 13 6.5C13 4.73469 12.9925 4.51334 12.9609 3.82007C12.9293 3.12818 12.8195 2.65571 12.6588 2.24225C12.4926 1.81477 12.2704 1.45229 11.9091 1.09098C11.5477 0.729625 11.1852 0.507355 10.7578 0.34125C10.3443 0.180527 9.87182 0.0706875 9.17993 0.0391016C8.48671 0.00746484 8.26531 0 6.5 0M6.5 1.17117C8.2356 1.17117 8.44117 1.17777 9.12656 1.20905C9.76031 1.23799 10.1045 1.34387 10.3336 1.43284C10.6369 1.55076 10.8535 1.69167 11.0809 1.91907C11.3084 2.14652 11.4492 2.3631 11.5672 2.66647C11.6562 2.89555 11.7621 3.23974 11.791 3.87344C11.8222 4.55883 11.8288 4.7644 11.8288 6.5C11.8288 8.23555 11.8222 8.44111 11.791 9.12651C11.7621 9.76031 11.6562 10.1045 11.5672 10.3335C11.4492 10.6369 11.3084 10.8534 11.0809 11.0809C10.8535 11.3083 10.6369 11.4492 10.3336 11.5671C10.1045 11.6561 9.76031 11.762 9.12656 11.7909C8.44127 11.8222 8.2357 11.8288 6.5 11.8288C4.76435 11.8288 4.55874 11.8222 3.87344 11.7909C3.23974 11.762 2.89555 11.6561 2.66653 11.5671C2.36311 11.4492 2.14653 11.3083 1.91908 11.0809C1.69168 10.8534 1.55081 10.6369 1.4329 10.3335C1.34388 10.1045 1.238 9.76031 1.2091 9.12656C1.17777 8.44111 1.17117 8.23555 1.17117 6.5C1.17117 4.7644 1.17777 4.55883 1.2091 3.87344C1.238 3.23974 1.34388 2.89555 1.4329 2.66647C1.55081 2.3631 1.69168 2.14652 1.91908 1.91907C2.14653 1.69167 2.36311 1.55076 2.66653 1.43284C2.89555 1.34387 3.23974 1.23799 3.87344 1.20905C4.55884 1.17777 4.76445 1.17117 6.5 1.17117" fill="white"/>
</svg>
