<svg width="55" height="55" viewBox="0 0 55 55" fill="none" xmlns="http://www.w3.org/2000/svg">
<path fill-rule="evenodd" clip-rule="evenodd" d="M27.5 55C42.6878 55 55 42.6878 55 27.5C55 12.3122 42.6878 0 27.5 0C12.3122 0 0 12.3122 0 27.5C0 42.6878 12.3122 55 27.5 55Z" fill="white"/>
<mask id="mask0" mask-type="alpha" maskUnits="userSpaceOnUse" x="0" y="0" width="55" height="55">
<path fill-rule="evenodd" clip-rule="evenodd" d="M27.5 55C42.6878 55 55 42.6878 55 27.5C55 12.3122 42.6878 0 27.5 0C12.3122 0 0 12.3122 0 27.5C0 42.6878 12.3122 55 27.5 55Z" fill="white"/>
</mask>
<g mask="url(#mask0)">
<rect width="55" height="55" fill="#3B43F2"/>
</g>
<path d="M28.1148 40.34C25.5761 40.3627 23.4001 39.898 21.5868 38.946C19.7734 37.994 18.3794 36.6227 17.4048 34.832C16.4301 33.0413 15.9428 30.888 15.9428 28.372C15.9428 25.856 16.4528 23.6347 17.4728 21.708C18.5154 19.7587 19.9774 18.24 21.8588 17.152C23.7401 16.064 25.9728 15.52 28.5568 15.52C30.8461 15.52 32.8521 16.0187 34.5748 17.016C36.2974 18.0133 37.6348 19.4073 38.5868 21.198C39.5614 22.966 40.0488 25.0513 40.0488 27.454C40.0488 30.038 39.5388 32.2933 38.5188 34.22C37.4988 36.1467 36.0821 37.6427 34.2688 38.708C32.4781 39.7733 30.4268 40.3173 28.1148 40.34ZM27.9108 35.41C29.8374 35.41 31.4014 34.7187 32.6028 33.336C33.8041 31.9307 34.4048 29.9927 34.4048 27.522C34.4048 25.3687 33.8608 23.6573 32.7728 22.388C31.6848 21.096 30.2228 20.45 28.3868 20.45C27.0494 20.45 25.8708 20.7787 24.8508 21.436C23.8308 22.0933 23.0261 23.0113 22.4368 24.19C21.8701 25.346 21.5868 26.706 21.5868 28.27C21.5868 30.5367 22.1421 32.2933 23.2528 33.54C24.3861 34.7867 25.9388 35.41 27.9108 35.41Z" fill="white"/>
</svg>
